<?xml version="1.0" encoding="UTF-8"?>
<svg id="Layer_1" data-name="Layer 1" xmlns="http://www.w3.org/2000/svg" viewBox="0 0 368.26 104">
  <defs>
    <style>
      .cls-1 {
        fill: #231f20;
      }

      .cls-1, .cls-2, .cls-3 {
        stroke: #fff;
        stroke-miterlimit: 10;
        stroke-width: .5px;
      }

      .cls-2 {
        fill: #3871a2;
      }

      .cls-3 {
        fill: #ffd340;
      }
    </style>
  </defs>
  <g>
    <path class="cls-2" d="M49.09,25.6v43.99h-12.05V25.6h12.05Z"/>
    <path class="cls-2" d="M68.2,37.46v32.13h-12.05V37.46h12.05Zm-5.99-14.34c1.63,0,3.05,.58,4.24,1.72,1.19,1.15,1.79,2.51,1.79,4.08,0,1.68-.56,3.05-1.69,4.12-1.13,1.07-2.57,1.61-4.33,1.61s-3.21-.54-4.33-1.61c-1.13-1.07-1.69-2.45-1.69-4.12,0-1.57,.6-2.93,1.79-4.08,1.19-1.15,2.6-1.72,4.24-1.72Z"/>
    <path class="cls-2" d="M86.63,25.6v26.33c0,4.28,1.54,6.41,4.61,6.41,1.31,0,2.42-.45,3.34-1.34,.91-.89,1.37-1.97,1.37-3.24s-.43-2.41-1.29-3.3c-.86-.89-1.91-1.34-3.16-1.34-.88,0-1.89,.39-3.03,1.16v-13.28c1.42-.13,2.49-.19,3.22-.19,4.53,0,8.42,1.63,11.65,4.9,3.23,3.27,4.85,7.2,4.85,11.79s-1.64,8.67-4.93,11.89-7.33,4.83-12.12,4.83c-2.41,0-4.75-.53-7.04-1.58s-4.17-2.47-5.66-4.25c-2.58-3.09-3.87-7.1-3.87-12.02V25.6h12.05Z"/>
  </g>
  <g>
    <path class="cls-1" d="M115,37.89h12.05v18.14c0,1.83,.76,2.74,2.29,2.74s2.26-.91,2.26-2.74v-18.14h12.05v17.92c0,4.17-1.39,7.69-4.16,10.55s-6.17,4.3-10.18,4.3c-4.58,0-8.26-1.66-11.05-5-2.17-2.6-3.25-6.21-3.25-10.83v-16.95Z"/>
    <path class="cls-1" d="M168.3,37.12v12.89c-.84-.47-1.6-.71-2.29-.71-2.19,0-3.29,1.68-3.29,5.03v15.24h-12.05v-17.56c0-4.64,1.27-8.34,3.8-11.1,2.53-2.76,5.92-4.14,10.15-4.14,.95,0,2.17,.12,3.67,.35Z"/>
    <path class="cls-1" d="M183.9,25.58v43.99h-12.05V25.58h12.05Z"/>
    <path class="cls-1" d="M202.3,81.46h-12.05v-26.81c0-4.92,1.29-8.93,3.87-12.02,1.48-1.78,3.37-3.2,5.66-4.25,2.29-1.05,4.64-1.58,7.04-1.58,4.79,0,8.83,1.61,12.12,4.83s4.93,7.18,4.93,11.86-1.63,8.49-4.9,11.79c-3.27,3.31-7.13,4.96-11.6,4.96-.73,0-1.8-.08-3.22-.23v-13.28c.99,.79,1.98,1.19,2.96,1.19,1.25,0,2.31-.46,3.21-1.39,.89-.92,1.34-2.02,1.34-3.29s-.46-2.35-1.39-3.24c-.92-.89-2.03-1.34-3.32-1.34-3.09,0-4.64,2.14-4.64,6.41v26.36Z"/>
    <path class="cls-1" d="M247,57.52v12.47c-.99,.17-1.89,.26-2.71,.26-4.83,0-8.86-1.59-12.08-4.77-3.22-3.18-4.83-7.17-4.83-11.96s1.63-8.62,4.88-11.86c3.25-3.24,7.21-4.87,11.88-4.87,5.2,0,9.3,1.52,12.29,4.56,3,3.04,4.5,7.19,4.5,12.46v15.76h-12.05v-14.89c0-1.7-.41-3.05-1.24-4.06-.83-1.01-1.94-1.51-3.34-1.51-1.27,0-2.36,.46-3.29,1.39s-1.39,2.02-1.39,3.29c0,1.33,.42,2.43,1.26,3.29,.84,.86,1.9,1.29,3.19,1.29,1.05,0,2.03-.28,2.93-.84Z"/>
    <path class="cls-1" d="M285.57,37.12v12.89c-.84-.47-1.6-.71-2.29-.71-2.19,0-3.29,1.68-3.29,5.03v15.24h-12.05v-17.56c0-4.64,1.27-8.34,3.8-11.1,2.53-2.76,5.92-4.14,10.15-4.14,.95,0,2.17,.12,3.67,.35Z"/>
    <path class="cls-1" d="M309.26,37.89v12.7c-1.7,0-2.86,.32-3.5,.95s-1.04,1.89-1.21,3.75c-.56,6.21-2.96,10.59-7.22,13.15-2.26,1.33-5.46,2-9.6,2h-1.68v-12.76h.55c1.93,0,3.31-.4,4.14-1.21,.83-.81,1.31-2.22,1.43-4.24,.17-3.29,.48-5.6,.92-6.93,.44-1.33,1.34-2.65,2.69-3.96,2.36-2.3,5.64-3.45,9.83-3.45h3.64Z"/>
    <path class="cls-1" d="M344.77,55.45h-18.27c-.28-.92-.42-1.77-.42-2.55,0-1.07,.19-2.13,.58-3.16h6.12c-.43-2.38-1.77-3.58-4.03-3.58-1.5,0-2.73,.64-3.67,1.92-.95,1.28-1.42,2.92-1.42,4.91s.46,3.77,1.37,5.06,2.11,1.93,3.59,1.93c1.2,0,2.36-.6,3.48-1.8l6.86,8.25c-3.2,2.51-6.76,3.77-10.67,3.77-4.77,0-8.78-1.6-12.02-4.8-3.24-3.2-4.87-7.17-4.87-11.89s1.64-8.68,4.91-11.92c3.28-3.24,7.3-4.87,12.07-4.87s8.58,1.58,11.75,4.75c3.17,3.17,4.75,7.07,4.75,11.71,0,.47-.04,1.22-.13,2.26Z"/>
    <path class="cls-1" d="M367.4,37.12v12.89c-.84-.47-1.6-.71-2.29-.71-2.19,0-3.29,1.68-3.29,5.03v15.24h-12.05v-17.56c0-4.64,1.27-8.34,3.8-11.1,2.54-2.76,5.92-4.14,10.15-4.14,.95,0,2.17,.12,3.67,.35Z"/>
  </g>
  <path class="cls-3" d="M48,85.59v.05c-19.8-.51-35.75-16.76-35.75-36.68S28.72,12.25,48.96,12.25V.25C22.1,.25,.25,22.1,.25,48.96s21.34,48.27,47.75,48.78c0,.03,0-.03,0,0h221.94v-12.14H48Z"/>
  <polygon class="cls-3" points="295.79 85.99 290.08 85.99 290.08 80.29 278.03 80.29 278.03 85.99 272.33 85.99 272.33 98.04 278.03 98.04 278.03 103.75 290.08 103.75 290.08 98.04 295.79 98.04 295.79 85.99"/>
  <polygon class="cls-3" points="321.63 85.99 315.93 85.99 315.93 80.29 303.87 80.29 303.87 85.99 298.17 85.99 298.17 98.04 303.87 98.04 303.87 103.75 315.93 103.75 315.93 98.04 321.63 98.04 321.63 85.99"/>
  <path class="cls-3" d="M368.01,98.04h-43.99v-12.05h43.99v12.05Z"/>
</svg>